<svg xmlns="http://www.w3.org/2000/svg" version="1.1" xmlns:xlink="http://www.w3.org/1999/xlink" xmlns:svgjs="http://svgjs.com/svgjs" width="512" height="512" x="0" y="0" viewBox="0 0 512 512" style="enable-background:new 0 0 512 512" xml:space="preserve" class=""><g><path d="m274.416 180.462-37.127-37.122a7.999 7.999 0 0 1 0-11.314l16.971-16.969a8 8 0 0 1 11.314 0l14.496 14.496 38.015-38.015a8 8 0 0 1 11.314 0l16.971 16.971a8 8 0 0 1 0 11.314l-60.639 60.64a8.003 8.003 0 0 1-11.315-.001zM248.456 352l16.177-16.178a8 8 0 0 0 0-11.313l-16.97-16.971a8 8 0 0 0-11.314 0l-16.177 16.178-16.177-16.178a8 8 0 0 0-11.314 0l-16.97 16.971a8 8 0 0 0 0 11.313L191.887 352l-16.177 16.178a8 8 0 0 0 0 11.313l16.97 16.971a8 8 0 0 0 11.314 0l16.177-16.178 16.177 16.178a8 8 0 0 0 11.314 0l16.97-16.971a8 8 0 0 0 0-11.313L248.456 352z" fill="#ffffff" data-original="#000000"></path><path d="M433.77 222H128V50h305.77L502 136zM78.23 438H384V266H78.23L10 352zM284 439.066V502h-56v-62.559M284 222.734v42.011M228 48.988V10h56v38.988M228 264.968v-42.234" style="stroke-width:20;stroke-linecap:round;stroke-linejoin:round;stroke-miterlimit:10;" fill="none" stroke="#ffffff" stroke-width="20" stroke-linecap="round" stroke-linejoin="round" stroke-miterlimit="10" data-original="#000000" class=""></path></g></svg>