<svg xmlns="http://www.w3.org/2000/svg" xmlns:xlink="http://www.w3.org/1999/xlink" width="23.693" height="23.692" viewBox="0 0 23.693 23.692"><defs><clipPath id="a"><path d="M0-682.665H23.692v23.692H0Z" transform="translate(0 682.665)"/></clipPath></defs><g transform="translate(0 682.665)"><g transform="translate(0 -682.665)"><g clip-path="url(#a)"><g transform="translate(7.022 0.463)"><path d="M-268.941-134.47a4.835,4.835,0,0,1-4.835,4.835,4.835,4.835,0,0,1-4.835-4.835,4.835,4.835,0,0,1,4.835-4.835A4.835,4.835,0,0,1-268.941-134.47Z" transform="translate(278.61 139.305)" fill="none" stroke="#fff" stroke-linecap="round" stroke-linejoin="round" stroke-miterlimit="10" stroke-width="1"/></g><g transform="translate(0.552 9.001)"><path d="M-620.19-113.764l-4.363,1.784a2.3,2.3,0,0,0-1.318-1.572l-.633-.277a11.625,11.625,0,0,0-9.3,0l-.645.281a2.306,2.306,0,0,0-1.323,1.589l-4.428-1.8a.467.467,0,0,1,0-.864l7.906-3.225a4.814,4.814,0,0,0,3.108,1.131,4.816,4.816,0,0,0,3.1-1.125l7.893,3.22A.467.467,0,0,1-620.19-113.764Z" transform="translate(642.488 117.854)" fill="none" stroke="#fff" stroke-linecap="round" stroke-linejoin="round" stroke-miterlimit="10" stroke-width="1"/></g><g transform="translate(18.551 9.836)"><path d="M0,0V8.188" fill="none" stroke="#fff" stroke-linecap="round" stroke-linejoin="round" stroke-miterlimit="10" stroke-width="1"/></g><g transform="translate(17.386 18.024)"><path d="M-32.417-89.425h0a1.165,1.165,0,0,1-1.166-1.165v-.884a1.165,1.165,0,0,1,1.166-1.165,1.165,1.165,0,0,1,1.166,1.165v.884A1.165,1.165,0,0,1-32.417-89.425Z" transform="translate(33.583 92.64)" fill="none" stroke="#fff" stroke-linecap="round" stroke-linejoin="round" stroke-miterlimit="10" stroke-width="1"/></g><g transform="translate(17.405 21.118)"><path d="M-63.775-58.728h-2.293a4.435,4.435,0,0,1,.63-2.111,1.159,1.159,0,0,0,.517.121,1.161,1.161,0,0,0,.517-.121A4.437,4.437,0,0,1-63.775-58.728Z" transform="translate(66.067 60.84)" fill="none" stroke="#fff" stroke-linecap="round" stroke-linejoin="round" stroke-miterlimit="10" stroke-width="1"/></g><g transform="translate(5.21 12.054)"><path d="M-242.5-188.9a11.614,11.614,0,0,1,1.412.345c.687.236,1.365.5,2.045.75v-.752a1.165,1.165,0,0,1,1.165-1.166v-2.608a2.305,2.305,0,0,0-1.383-2.113l-.633-.277a11.625,11.625,0,0,0-9.3,0l-.645.281a2.306,2.306,0,0,0-1.384,2.114v4.966c1.068-.4,2.132-.839,3.217-1.193a11.621,11.621,0,0,1,1.433-.348" transform="translate(251.217 195.695)" fill="none" stroke="#fff" stroke-linecap="round" stroke-linejoin="round" stroke-miterlimit="10" stroke-width="1"/></g><g transform="translate(5.21 18.842)"><path d="M-129.344,0a11.621,11.621,0,0,0-1.433.348c-1.085.355-2.15.789-3.217,1.193l3.074,1.328a9.132,9.132,0,0,0,7.293-.022l2.053-.9a1.161,1.161,0,0,1-.244-.715V1.1c-.68-.254-1.358-.516-2.045-.75A11.613,11.613,0,0,0-125.276,0" transform="translate(133.994)" fill="none" stroke="#fff" stroke-linecap="round" stroke-linejoin="round" stroke-miterlimit="10" stroke-width="1"/></g><g transform="translate(10.531 2.635)"><path d="M-67.833-9.629A1.591,1.591,0,0,0-69.328-9.9,1.092,1.092,0,0,0-69.8-8.065a5.219,5.219,0,0,0,1.472.7,1.354,1.354,0,0,1-.57,2.61,2.007,2.007,0,0,1-1.373-.37" transform="translate(70.272 9.975)" fill="none" stroke="#fff" stroke-linecap="round" stroke-linejoin="round" stroke-miterlimit="10" stroke-width="1"/></g><g transform="translate(11.904 2.139)"><path d="M0,0V6.3" fill="none" stroke="#fff" stroke-linecap="round" stroke-linejoin="round" stroke-miterlimit="10" stroke-width="1"/></g><g transform="translate(11.936 18.665)"><path d="M0,0H0" fill="none" stroke="#fff" stroke-linecap="round" stroke-linejoin="round" stroke-miterlimit="10" stroke-width="1"/></g></g></g></g></svg>