<svg xmlns="http://www.w3.org/2000/svg" width="23.692" height="22.758" viewBox="0 0 23.692 22.758"><path d="M22.411,10.1H1.282A1.283,1.283,0,0,0,0,11.382V26.34a1.283,1.283,0,0,0,1.282,1.282h2.05a.347.347,0,1,0,0-.694H1.282a.588.588,0,0,1-.588-.588V11.382a.588.588,0,0,1,.588-.588H22.411a.588.588,0,0,1,.588.588V26.34a.588.588,0,0,1-.588.588H4.951a.347.347,0,1,0,0,.694H8.674a5.137,5.137,0,0,1-1.456,3.045H6.05a.628.628,0,0,0-.628.627v.935a.628.628,0,0,0,.628.628h8.632a.347.347,0,0,0,0-.694H6.117v-.8H17.576v.8H16.3a.347.347,0,0,0,0,.694h1.341a.628.628,0,0,0,.628-.628V31.3a.628.628,0,0,0-.628-.627H16.475a5.167,5.167,0,0,1-1.455-3.045h7.391a1.283,1.283,0,0,0,1.282-1.282V11.382A1.283,1.283,0,0,0,22.411,10.1ZM15.545,30.667h-7.4a5.822,5.822,0,0,0,1.225-3.045H14.32a5.823,5.823,0,0,0,1.225,3.045Z" transform="translate(0 -10.1)" fill="#fff"/><path d="M50.375,55.558h2.308a.347.347,0,0,0,.347-.347V42.777a.347.347,0,0,0-.347-.347H32.677a.347.347,0,0,0-.347.347V55.211a.347.347,0,0,0,.347.347H48.756a.347.347,0,0,0,0-.694H33.024V43.124H52.336v11.74H50.375a.347.347,0,1,0,0,.694Z" transform="translate(-30.834 -40.934)" fill="#fff"/><path d="M67.494,84.191a.347.347,0,0,0-.347-.347H65a.347.347,0,0,0-.347.347v1.87a.347.347,0,0,0,.347.347h2.15a.347.347,0,0,0,.347-.347ZM66.8,85.714H65.344V84.538H66.8Z" transform="translate(-61.658 -80.432)" fill="#fff"/><path d="M151.871,124.944h5.8a.347.347,0,0,0,0-.694h-5.8a.347.347,0,1,0,0,.694Z" transform="translate(-144.512 -118.968)" fill="#fff"/><path d="M215.229,83.844h-4.768a.347.347,0,0,0,0,.694h4.768a.347.347,0,0,0,0-.694Z" transform="translate(-200.391 -80.432)" fill="#fff"/><path d="M151.871,84.538h1.075a.347.347,0,0,0,0-.694h-1.075a.347.347,0,1,0,0,.694Z" transform="translate(-144.512 -80.432)" fill="#fff"/><path d="M67.494,156.922a.347.347,0,0,0-.347-.347H65a.347.347,0,0,0-.347.347v1.87a.347.347,0,0,0,.347.347h2.15a.347.347,0,0,0,.347-.347Zm-.694,1.523H65.344v-1.176H66.8Z" transform="translate(-61.658 -149.797)" fill="#fff"/><path d="M151.871,197.675h5.8a.347.347,0,1,0,0-.694h-5.8a.347.347,0,1,0,0,.694Z" transform="translate(-144.512 -188.333)" fill="#fff"/><path d="M215.229,156.575h-4.768a.347.347,0,0,0,0,.694h4.768a.347.347,0,0,0,0-.694Z" transform="translate(-200.391 -149.797)" fill="#fff"/><path d="M151.871,157.269h1.075a.347.347,0,0,0,0-.694h-1.075a.347.347,0,1,0,0,.694Z" transform="translate(-144.512 -149.797)" fill="#fff"/><path d="M67.147,229.307H65a.347.347,0,0,0-.347.347v1.87a.347.347,0,0,0,.347.347h2.15a.347.347,0,0,0,.347-.347v-1.87A.347.347,0,0,0,67.147,229.307Zm-.347,1.87H65.344V230H66.8Z" transform="translate(-61.658 -219.163)" fill="#fff"/><path d="M151.871,270.408h5.8a.347.347,0,1,0,0-.694h-5.8a.347.347,0,1,0,0,.694Z" transform="translate(-144.512 -257.701)" fill="#fff"/><path d="M215.576,229.654a.347.347,0,0,0-.347-.347h-4.768a.347.347,0,0,0,0,.694h4.768A.347.347,0,0,0,215.576,229.654Z" transform="translate(-200.391 -219.163)" fill="#fff"/><path d="M151.871,230h1.075a.347.347,0,0,0,0-.694h-1.075a.347.347,0,1,0,0,.694Z" transform="translate(-144.512 -219.163)" fill="#fff"/><path d="M350.189,184.376a.347.347,0,0,0-.247-.317l-4.02-1.206a.347.347,0,0,0-.432.432l1.206,4.02a.347.347,0,0,0,.317.247h.016a.347.347,0,0,0,.322-.218l.749-1.872,1.872-.749A.347.347,0,0,0,350.189,184.376Zm-2.486.5a.347.347,0,0,0-.193.193l-.435,1.087-.735-2.451,2.451.735Z" transform="translate(-329.489 -174.845)" fill="#fff"/></svg>