<svg xmlns="http://www.w3.org/2000/svg" xmlns:xlink="http://www.w3.org/1999/xlink" width="23.691" height="23.692" viewBox="0 0 23.691 23.692"><defs><clipPath id="a"><path d="M0-682.665H23.692v23.692H0Z" transform="translate(0 682.665)" fill="#6b6464" stroke="#707070" stroke-width="1.333"/></clipPath></defs><g transform="translate(0 682.665)"><g transform="translate(11.846 -672.782)"><path d="M0,0H4.025" fill="none" stroke="#fff" stroke-linecap="round" stroke-linejoin="round" stroke-miterlimit="10" stroke-width="1"/></g><g transform="translate(7.821 -670.794)"><path d="M0,0H8.05" fill="none" stroke="#fff" stroke-linecap="round" stroke-linejoin="round" stroke-miterlimit="10" stroke-width="1"/></g><g transform="translate(11.846 -674.77)"><path d="M0,0H4.025" fill="none" stroke="#fff" stroke-linecap="round" stroke-linejoin="round" stroke-miterlimit="10" stroke-width="1"/></g><g transform="translate(7.821 -668.807)"><path d="M0,0H8.05" fill="none" stroke="#fff" stroke-linecap="round" stroke-linejoin="round" stroke-miterlimit="10" stroke-width="1"/></g><g transform="translate(7.821 -674.77)"><path d="M0,0H1.6" fill="none" stroke="#fff" stroke-linecap="round" stroke-linejoin="round" stroke-miterlimit="10" stroke-width="1"/></g><g transform="translate(8.62 -674.677)"><path d="M0,0V2.313" fill="none" stroke="#fff" stroke-linecap="round" stroke-linejoin="round" stroke-miterlimit="10" stroke-width="1"/></g><g transform="translate(0 -682.665)"><g clip-path="url(#a)"><g transform="translate(0.347 18.941)"><path d="M-578.237-77.422h-18.581a2.209,2.209,0,0,1-2.209-2.209.575.575,0,0,1,.575-.575H-576.6a.575.575,0,0,1,.575.575A2.209,2.209,0,0,1-578.237-77.422Z" transform="translate(599.026 80.205)" fill="none" stroke="#fff" stroke-linecap="round" stroke-linejoin="round" stroke-miterlimit="10" stroke-width="1"/></g><g transform="translate(8.154 18.941)"><path d="M0,0V.7a.7.7,0,0,0,.7.7H6.689a.7.7,0,0,0,.7-.7V0" fill="none" stroke="#fff" stroke-linecap="round" stroke-linejoin="round" stroke-miterlimit="10" stroke-width="1"/></g><g transform="translate(18.054 5.67)"><path d="M-104.577-369.1v-12.067a1.2,1.2,0,0,0-1.2-1.2h-2.557" transform="translate(108.337 382.371)" fill="none" stroke="#fff" stroke-linecap="round" stroke-linejoin="round" stroke-miterlimit="10" stroke-width="1"/></g><g transform="translate(3.507 7.299)"><path d="M0-79.988v6.819a.318.318,0,0,0,.317.318H16.36a.318.318,0,0,0,.317-.318v-9.377a.318.318,0,0,0-.317-.317H14.547" transform="translate(0 82.864)" fill="none" stroke="#fff" stroke-linecap="round" stroke-linejoin="round" stroke-miterlimit="10" stroke-width="1"/></g><g transform="translate(3.507 7.299)"><path d="M-59.265,0h-1.813A.317.317,0,0,0-61.4.318v.936" transform="translate(61.396)" fill="none" stroke="#fff" stroke-linecap="round" stroke-linejoin="round" stroke-miterlimit="10" stroke-width="1"/></g><g transform="translate(18.054 15.96)"><path d="M0-37.591v-1.352" transform="translate(0 38.943)" fill="none" stroke="#fff" stroke-linecap="round" stroke-linejoin="round" stroke-miterlimit="10" stroke-width="1"/></g><g transform="translate(5.638 1.968)"><path d="M-345.339-344.03v-8.845a.866.866,0,0,0-.254-.612l-2.659-2.659a.866.866,0,0,0-.612-.254h-7.749a1.143,1.143,0,0,0-1.143,1.143v14.2" transform="translate(357.755 356.399)" fill="none" stroke="#fff" stroke-linecap="round" stroke-linejoin="round" stroke-miterlimit="10" stroke-width="1"/></g><g transform="translate(14.888 2.047)"><path d="M0,0V1.939A1.143,1.143,0,0,0,1.143,3.082H3.085" fill="none" stroke="#fff" stroke-linecap="round" stroke-linejoin="round" stroke-miterlimit="10" stroke-width="1"/></g><g transform="translate(1.878 5.67)"><path d="M-104.577,0h-2.557a1.2,1.2,0,0,0-1.2,1.2V13.27" transform="translate(108.337)" fill="none" stroke="#fff" stroke-linecap="round" stroke-linejoin="round" stroke-miterlimit="10" stroke-width="1"/></g></g></g></g></svg>