<svg xmlns="http://www.w3.org/2000/svg" version="1.1" xmlns:xlink="http://www.w3.org/1999/xlink" xmlns:svgjs="http://svgjs.com/svgjs" width="512" height="512" x="0" y="0" viewBox="0 0 48 48" style="enable-background:new 0 0 512 512" xml:space="preserve" class=""><g><g data-name="report 19"><path d="M22 33h-1a1 1 0 0 0 0 2h1a1 1 0 0 0 0-2zM37 33H26a1 1 0 0 0 0 2h11a1 1 0 0 0 0-2zM22 37h-1a1 1 0 0 0 0 2h1a1 1 0 0 0 0-2zM37 37H26a1 1 0 0 0 0 2h11a1 1 0 0 0 0-2z" fill="#ffffff" data-original="#000000" class=""></path><path d="M40 5H11a6 6 0 0 0-6 6v8a3 3 0 0 0 3 3h7v18a3 3 0 0 0 3 3h22a3 3 0 0 0 3-3V8a3 3 0 0 0-3-3zM15 20H8a1 1 0 0 1-1-1v-8a4 4 0 0 1 8 0zm26 20a1 1 0 0 1-1 1H18a1 1 0 0 1-1-1V11a6 6 0 0 0-1.54-4H40a1 1 0 0 1 1 1z" fill="#ffffff" data-original="#000000" class=""></path><path d="M37 31a1 1 0 0 0 0-2H26a1 1 0 0 0 0 2zM22 31a1 1 0 0 0 0-2h-1a1 1 0 0 0 0 2zM37 20.6a1 1 0 0 0-1 1 2.41 2.41 0 0 1-2.4 2.4h-9.17A2.42 2.42 0 0 1 22 21.6a1 1 0 0 0-2 0 4.43 4.43 0 0 0 4.43 4.4h9.17a4.42 4.42 0 0 0 4.4-4.4 1 1 0 0 0-1-1z" fill="#ffffff" data-original="#000000" class=""></path><path d="M28.21 21.47a1 1 0 0 0 1.61 0l2.89-3.89a1 1 0 0 0-1.61-1.2L30 17.85V10a1 1 0 1 0-2 0v7.89l-1.09-1.47a1 1 0 0 0-1.6 1.2z" fill="#ffffff" data-original="#000000" class=""></path></g></g></svg>