<svg xmlns="http://www.w3.org/2000/svg" width="23.449" height="20.322" viewBox="0 0 23.449 20.322"><path d="M16.672,13.567a6.191,6.191,0,0,0,1.334-3.814,6.253,6.253,0,1,0-6.253,6.253,6.191,6.191,0,0,0,3.814-1.334L19.8,18.9A.782.782,0,1,0,20.9,17.8ZM7.063,9.753a4.69,4.69,0,1,1,4.69,4.69A4.69,4.69,0,0,1,7.063,9.753Z" transform="translate(2.316 -0.373)" fill="#fff"/><path d="M23.167,1.5H1.282a.782.782,0,1,0,0,1.563H23.167a.782.782,0,1,0,0-1.563Z" transform="translate(-0.5 -1.5)" fill="#fff"/><path d="M1.282,9.063h4.69a.782.782,0,1,0,0-1.563H1.282a.782.782,0,0,0,0,1.563Z" transform="translate(-0.5 1.88)" fill="#fff"/><path d="M1.282,12.063h4.69a.782.782,0,1,0,0-1.563H1.282a.782.782,0,0,0,0,1.563Z" transform="translate(-0.5 3.569)" fill="#fff"/><path d="M1.282,15.063h17.2a.782.782,0,1,0,0-1.563H1.282a.782.782,0,0,0,0,1.563Z" transform="translate(-0.5 5.259)" fill="#fff"/><path d="M1.282,6.063h4.69a.782.782,0,1,0,0-1.563H1.282a.782.782,0,0,0,0,1.563Z" transform="translate(-0.5 0.19)" fill="#fff"/></svg>